<?xml version="1.0" standalone="no"?>
<!DOCTYPE svg PUBLIC "-//W3C//DTD SVG 20010904//EN"
 "http://www.w3.org/TR/2001/REC-SVG-20010904/DTD/svg10.dtd">
<svg version="1.0" xmlns="http://www.w3.org/2000/svg"
 width="2048.000000pt" height="2048.000000pt" viewBox="0 0 2048.000000 2048.000000"
 preserveAspectRatio="xMidYMid meet">

<g transform="translate(0.000000,2048.000000) scale(0.100000,-0.100000)"
fill="#000000" stroke="none">
<path d="M3785 16705 c-966 -115 -1762 -805 -1999 -1732 -20 -76 -44 -183 -53
-238 -17 -95 -18 -353 -18 -4865 0 -4554 1 -4769 18 -4850 51 -240 158 -493
284 -670 252 -354 608 -585 1065 -692 93 -22 94 -22 1538 -25 1600 -4 1498 -8
1634 60 158 78 261 195 325 370 l26 72 5 2458 5 2458 1600 -1212 c880 -666
1625 -1228 1656 -1250 122 -83 227 -114 379 -113 123 2 204 22 301 77 35 19
795 589 1689 1266 l1625 1231 5 -2458 c6 -2700 0 -2485 65 -2612 66 -130 160
-222 290 -284 150 -72 39 -67 1640 -64 1435 3 1440 3 1535 25 558 127 988 468
1215 963 52 114 93 237 128 382 l22 93 3 4715 c3 5259 8 4845 -67 5144 -105
416 -303 765 -606 1069 -195 195 -385 329 -647 456 -320 156 -599 225 -953
238 -495 17 -950 -113 -1362 -389 -61 -40 -1184 -890 -2497 -1888 -1313 -998
-2390 -1816 -2394 -1817 -4 -2 -1075 809 -2380 1802 -1305 992 -2421 1838
-2480 1878 -328 228 -708 368 -1101 407 -136 13 -359 11 -496 -5z m525 -1296
c109 -27 265 -101 360 -170 41 -30 1220 -925 2620 -1990 1400 -1064 2565
-1949 2590 -1966 101 -69 231 -107 365 -107 150 0 260 37 395 135 41 30 1211
919 2600 1974 1389 1056 2548 1936 2575 1956 118 83 250 143 390 175 61 15
116 19 230 18 182 -1 295 -27 450 -102 289 -141 485 -377 572 -688 l28 -99 0
-4660 0 -4660 -28 -59 c-55 -119 -146 -199 -266 -236 -61 -19 -95 -20 -1052
-20 l-989 0 -2 2773 -3 2772 -29 84 c-34 97 -104 209 -165 264 -205 184 -490
228 -726 111 -48 -23 -691 -504 -2025 -1514 -1075 -814 -1960 -1478 -1966
-1476 -6 2 -873 656 -1925 1453 -1053 797 -1941 1467 -1974 1489 -241 161
-544 149 -768 -30 -91 -73 -175 -204 -213 -331 -18 -57 -19 -187 -21 -2828
l-3 -2767 -1013 2 -1012 3 -59 28 c-121 57 -208 157 -240 279 -16 58 -17 404
-14 4698 l3 4635 22 81 c51 190 139 341 277 480 170 169 382 276 621 314 96
15 297 4 395 -21z"/>
</g>
</svg>
