<?xml version="1.0" standalone="no"?>
<!DOCTYPE svg PUBLIC "-//W3C//DTD SVG 20010904//EN"
 "http://www.w3.org/TR/2001/REC-SVG-20010904/DTD/svg10.dtd">
<svg version="1.0" xmlns="http://www.w3.org/2000/svg"
 width="2048.000000pt" height="2048.000000pt" viewBox="0 0 2048.000000 2048.000000"
 preserveAspectRatio="xMidYMid meet">

<g transform="translate(0.000000,2048.000000) scale(0.100000,-0.100000)"
fill="#000000" stroke="none">
<path d="M2120 20249 c-487 -45 -968 -236 -1322 -527 -98 -80 -270 -258 -347
-360 -205 -271 -343 -588 -411 -942 -57 -297 -51 -679 16 -975 181 -812 762
-1420 1576 -1649 268 -76 488 -101 812 -93 320 8 534 43 801 132 362 120 649
298 911 566 173 178 295 353 403 579 203 426 268 915 185 1401 -152 895 -775
1569 -1658 1794 -305 77 -642 103 -966 74z m447 -890 c295 -25 534 -104 747
-248 541 -366 732 -1160 427 -1771 -184 -367 -528 -616 -982 -709 -383 -78
-778 -42 -1089 101 -523 240 -822 774 -770 1373 31 351 146 612 369 836 311
311 780 462 1298 418z"/>
<path d="M430 7585 l0 -7365 2000 0 2000 0 0 7365 0 7365 -2000 0 -2000 0 0
-7365z m3110 -5 l0 -6470 -1110 0 -1110 0 0 6470 0 6470 1110 0 1110 0 0
-6470z"/>
<path d="M6687 14943 c-4 -3 -7 -3318 -7 -7365 l0 -7358 2220 0 2220 0 0 3879
c0 2572 3 3922 10 4007 15 179 44 375 90 604 61 301 90 392 181 571 130 255
249 420 422 585 299 286 648 409 1257 444 227 13 700 13 815 0 493 -55 945
-272 1309 -628 434 -426 683 -916 793 -1562 17 -99 18 -314 20 -4003 l3 -3897
2230 0 2230 0 -3 4423 c-4 4897 2 4489 -68 5062 -202 1656 -901 3045 -2004
3986 -803 685 -1785 1105 -2855 1224 -446 49 -1062 33 -1580 -41 -998 -142
-1881 -521 -2529 -1083 -51 -45 -95 -80 -97 -79 -2 2 -30 276 -64 608 -33 333
-62 611 -65 618 -3 9 -465 12 -2263 12 -1242 0 -2262 -3 -2265 -7z m3723 -902
c0 -15 169 -1691 176 -1743 l6 -48 366 0 367 1 88 144 c197 322 425 577 722
808 742 575 1762 868 2940 844 336 -7 580 -35 871 -102 684 -156 1283 -454
1839 -916 217 -180 513 -496 707 -754 353 -471 640 -1059 818 -1676 138 -475
206 -875 262 -1519 8 -98 12 -1198 15 -4052 l4 -3918 -1336 0 -1335 0 0 3308
c0 2123 -4 3375 -10 3497 -42 782 -312 1489 -798 2095 -106 132 -385 409 -517
514 -443 352 -933 570 -1479 658 -133 22 -169 23 -631 23 -504 0 -614 -6 -884
-46 -861 -126 -1461 -537 -1906 -1304 -202 -348 -305 -663 -394 -1205 -71
-427 -65 -52 -68 -3987 l-3 -3553 -1325 0 -1325 0 0 6470 0 6470 1415 0 c844
0 1415 -4 1415 -9z"/>
</g>
</svg>
