<?xml version="1.0" standalone="no"?>
<!DOCTYPE svg PUBLIC "-//W3C//DTD SVG 20010904//EN"
 "http://www.w3.org/TR/2001/REC-SVG-20010904/DTD/svg10.dtd">
<svg version="1.0" xmlns="http://www.w3.org/2000/svg"
 width="2048.000000pt" height="2048.000000pt" viewBox="0 0 2048.000000 2048.000000"
 preserveAspectRatio="xMidYMid meet">

<g transform="translate(0.000000,2048.000000) scale(0.100000,-0.100000)"
fill="#000000" stroke="none">
<path d="M13755 19269 c-1034 -44 -2020 -463 -2800 -1189 -613 -570 -1069
-1298 -1332 -2125 -102 -321 -170 -651 -214 -1040 -6 -55 -13 -258 -16 -451
l-5 -350 -62 8 c-1378 197 -2635 642 -3826 1356 -1144 686 -2133 1568 -3004
2680 -135 173 -188 221 -296 271 -93 43 -172 61 -270 61 -151 0 -282 -50 -390
-147 -82 -75 -128 -145 -225 -347 -355 -736 -534 -1559 -512 -2356 15 -523
116 -1005 318 -1516 74 -188 248 -541 350 -708 68 -114 71 -120 53 -133 -155
-109 -207 -164 -263 -278 -50 -102 -61 -168 -61 -385 1 -1076 321 -2147 888
-2970 131 -189 346 -452 471 -575 l61 -59 -68 -31 c-220 -103 -352 -328 -340
-577 15 -283 338 -1024 651 -1488 510 -758 1213 -1354 1982 -1680 156 -66 152
-55 39 -116 -1221 -665 -2691 -960 -4083 -819 -264 27 -350 18 -485 -53 -129
-67 -241 -206 -288 -357 -32 -101 -32 -273 1 -365 30 -85 78 -163 138 -226 55
-57 345 -255 625 -425 2062 -1258 4361 -1818 6758 -1644 1988 144 3796 753
5400 1820 1933 1286 3456 3151 4448 5450 731 1694 1120 3579 1122 5435 l0 255
158 137 c588 510 1140 1149 1595 1845 161 246 193 320 204 464 20 280 -162
532 -442 614 -79 24 -229 24 -314 2 -35 -10 -102 -35 -148 -57 l-84 -39 66
125 c124 237 244 521 328 779 58 178 71 250 62 345 -18 211 -136 388 -319 480
-117 58 -189 73 -316 68 -132 -7 -193 -28 -355 -128 -592 -362 -1146 -610
-1767 -790 -75 -22 -142 -40 -148 -40 -7 0 -56 39 -109 88 -258 235 -466 391
-752 563 -601 360 -1349 590 -2001 614 -84 3 -175 7 -203 9 -27 1 -127 -1
-220 -5z m400 -1209 c563 -40 1063 -210 1530 -521 213 -142 371 -277 600 -511
179 -182 195 -196 275 -235 202 -98 308 -92 810 42 91 24 237 67 325 94 l160
49 -80 -74 c-125 -117 -247 -215 -418 -337 -176 -126 -239 -192 -291 -302 -45
-94 -60 -162 -59 -270 1 -141 44 -260 136 -376 86 -108 259 -198 412 -214 66
-7 236 12 450 50 72 13 131 22 133 20 8 -7 -351 -322 -541 -475 -67 -53 -137
-119 -166 -156 -57 -75 -106 -184 -119 -270 -6 -34 -8 -238 -5 -484 8 -577
-13 -1006 -73 -1540 -239 -2142 -1031 -4201 -2264 -5889 -561 -769 -1238
-1482 -1950 -2052 -1464 -1173 -3162 -1888 -5035 -2118 -178 -22 -415 -44
-670 -63 -230 -17 -1039 -16 -1270 0 -920 66 -1716 224 -2550 506 -185 62
-478 171 -595 220 -29 12 -25 13 97 35 1340 239 2667 851 3743 1727 214 173
279 260 321 422 36 142 16 303 -53 435 -50 94 -156 194 -259 244 -109 53 -143
60 -335 73 -369 24 -642 81 -944 197 -673 259 -1229 722 -1646 1372 -34 53
-61 97 -60 98 1 1 73 6 161 13 401 27 811 96 1032 173 237 83 401 313 403 563
1 200 -83 370 -238 486 -75 56 -137 82 -292 123 -537 142 -933 360 -1307 719
-420 403 -728 917 -916 1526 -47 154 -92 329 -86 334 2 2 65 -7 139 -19 325
-55 739 -84 853 -60 263 55 466 317 467 601 0 79 -31 200 -72 276 -45 85 -112
155 -248 258 -411 313 -758 682 -1035 1100 -318 479 -507 951 -585 1465 -28
179 -38 554 -21 746 22 246 92 655 110 647 4 -2 67 -68 141 -148 758 -816
1652 -1542 2595 -2107 539 -324 1128 -616 1690 -838 1026 -406 2100 -660 3170
-749 323 -27 413 -30 493 -12 223 47 397 215 457 443 24 86 20 218 -9 368 -93
480 -95 1012 -5 1483 173 912 656 1714 1359 2254 620 476 1381 711 2135 658z"/>
</g>
</svg>
